<svg width="91" height="97" viewBox="0 0 91 97" fill="none" xmlns="http://www.w3.org/2000/svg">
<path d="M88.4107 17.1445L47.0031 0.293906C46.0048 -0.0979688 44.9197 -0.0979688 43.9214 0.293906L2.55714 17.1445C0.82097 17.8412 -0.220732 19.6264 0.0396938 21.4987L6.20309 65.9112C6.33331 66.9562 6.89756 67.9142 7.72224 68.5673L42.9665 96.1292C43.7044 96.6952 44.5724 97 45.4839 97C46.352 97 47.2635 96.6952 48.0014 96.1292L83.289 68.5673C84.1137 67.9142 84.6779 66.9562 84.8082 65.9112L90.9716 21.4987C91.1886 19.67 90.1469 17.8412 88.4107 17.1445ZM49.5639 84.5471V47.2754L61.6303 40.3087L59.1997 77.0579L49.5639 84.5471ZM9.24139 28.6395L41.4039 47.2754V61.2523L10.9342 40.7877L9.24139 28.6395ZM45.4839 40.2216L33.4175 33.2114L66.3614 16.9704L77.6465 21.5858L45.4839 40.2216ZM45.4839 8.47974L56.2482 12.8775L24.9103 28.2912L13.3214 21.5858L45.4839 8.47974ZM12.4099 51.6296L41.4039 71.0927V84.5471L14.0159 63.1681L12.4099 51.6296ZM67.7937 70.3089L70.1375 35.3885L81.7265 28.6831L76.952 63.1681L67.7937 70.3089Z" fill="#d1f403"/>
</svg>
