<svg width="127" height="127" viewBox="0 0 127 127" fill="none" xmlns="http://www.w3.org/2000/svg">
<g clip-path="url(#clip0_3_47)">
<path d="M126.84 63.44C126.836 75.9824 123.113 88.2421 116.142 98.6688C109.171 109.096 99.2648 117.221 87.676 122.018C76.0871 126.815 63.3361 128.068 51.0351 125.619C38.7342 123.17 27.4357 117.128 18.5683 108.258C9.70081 99.3874 3.66262 88.087 1.21716 75.7853C-1.22829 63.4836 0.0288029 50.7329 4.8295 39.1456C9.6302 27.5583 17.7589 17.6546 28.1879 10.6868C38.6168 3.71902 50.8776 6.23677e-07 63.42 0C71.7501 -4.14218e-07 79.9987 1.64106 87.6944 4.82947C95.3902 8.01787 102.382 12.6912 108.272 18.5824C114.161 24.4736 118.832 31.4673 122.018 39.1641C125.204 46.8609 126.843 55.1099 126.84 63.44Z" fill="#FFDD00"/>
<path d="M114.39 63.44C114.39 73.5268 111.399 83.3872 105.795 91.7741C100.191 100.161 92.2259 106.698 82.9068 110.558C73.5878 114.418 63.3334 115.428 53.4404 113.46C43.5473 111.492 34.46 106.635 27.3275 99.5024C20.195 92.37 15.3378 83.2826 13.3699 73.3896C11.4021 63.4966 12.412 53.2422 16.2721 43.9231C20.1322 34.6041 26.669 26.639 35.0559 21.035C43.4428 15.4311 53.3031 12.44 63.39 12.44C76.916 12.44 89.8881 17.8132 99.4524 27.3776C109.017 36.9419 114.39 49.914 114.39 63.44ZM63.39 26.55C56.1036 26.5619 48.9842 28.733 42.9311 32.7891C36.8781 36.8452 32.163 42.6043 29.3815 49.3389C26.5999 56.0735 25.8768 63.4813 27.3034 70.6267C28.73 77.7721 32.2423 84.3343 37.3966 89.4845C42.551 94.6347 49.1161 98.1417 56.2626 99.5624C63.4091 100.983 70.8164 100.254 77.5487 97.467C84.2811 94.68 90.0363 89.9602 94.0875 83.9039C98.1387 77.8476 100.304 70.7264 100.31 63.44C100.314 58.597 99.3634 53.8006 97.5128 49.3251C95.6622 44.8495 92.9477 40.7826 89.5245 37.3566C86.1014 33.9307 82.0366 31.2129 77.5626 29.3587C73.0886 27.5044 68.293 26.55 63.45 26.55" fill="#FF5100"/>
<path d="M116.31 47.82C114.69 45.61 111.74 44.5 107.56 44.5C106.172 44.5075 104.786 44.601 103.41 44.78C97.94 45.48 93.03 46.44 89.28 50.2L95.95 28.99L85.95 30.6C82.19 31.2 78.4 32.72 76.13 39.76L73.02 49.76L65.63 50.98C62.9692 51.3904 60.4587 52.4787 58.34 54.14C58.6208 53.1109 58.6822 52.0343 58.52 50.98C58.2385 49.1811 57.3278 47.5404 55.95 46.35L56.95 46.18C59.2729 45.7755 61.4502 44.7723 63.267 43.2694C65.0838 41.7665 66.4773 39.8159 67.31 37.61L70.31 28.18L17.81 36.74C16.6144 36.843 15.4815 37.3195 14.5716 38.102C13.6617 38.8844 13.0209 39.9333 12.74 41.1L8.65002 54.17L28.24 50.94L11.03 107.34L21.6 105.74C23.7427 105.284 25.7331 104.288 27.3819 102.845C29.0308 101.403 30.2832 99.563 31.02 97.5L31.63 95.5L45.99 92.94L48.2 85.94C48.5425 86.973 49.1172 87.9138 49.88 88.69C50.7702 89.5136 51.8164 90.1504 52.9569 90.5626C54.0974 90.9749 55.309 91.1542 56.52 91.09C57.5028 91.0867 58.4832 90.9963 59.45 90.82L77.45 87.93L79.45 81.44C79.6794 82.0277 79.9853 82.5825 80.36 83.09C82.05 85.33 84.94 86.41 89.21 86.41C90.8624 86.3972 92.5123 86.2803 94.15 86.06C105.82 84.57 109.26 80.06 111.84 71.8L112.84 68.57H113.04L117.04 56.02C118.04 52.63 117.86 49.87 116.34 47.82" fill="white"/>
<path d="M105.11 87.71V87.65C105.11 87.22 105.03 87.01 104.8 86.92C104.928 86.8659 105.038 86.7756 105.116 86.6603C105.194 86.5449 105.237 86.4093 105.24 86.27C105.241 86.1595 105.218 86.0502 105.173 85.9492C105.129 85.8481 105.063 85.7578 104.981 85.684C104.898 85.6103 104.801 85.5548 104.696 85.5214C104.591 85.488 104.48 85.4772 104.37 85.49H103.19V88.49H103.78V87.23H104.17C104.34 87.23 104.5 87.23 104.52 87.48C104.54 87.73 104.52 87.68 104.52 87.78C104.504 88.0079 104.539 88.2365 104.62 88.45H105.21V88.35C105.16 88.1363 105.126 87.919 105.11 87.7V87.71ZM104.62 86.3C104.626 86.3466 104.621 86.3938 104.607 86.4386C104.593 86.4834 104.57 86.5247 104.539 86.5597C104.507 86.5947 104.469 86.6226 104.426 86.6417C104.383 86.6607 104.337 86.6704 104.29 86.67H103.77V85.94H104.31C104.356 85.9382 104.403 85.9465 104.446 85.9644C104.488 85.9823 104.527 86.0093 104.558 86.0435C104.59 86.0778 104.613 86.1185 104.627 86.1628C104.642 86.2071 104.646 86.2539 104.64 86.3H104.62ZM106.09 85.04C105.839 84.7889 105.542 84.5898 105.214 84.4542C104.886 84.3186 104.535 84.2492 104.18 84.25C103.458 84.2519 102.766 84.5353 102.25 85.04C101.744 85.551 101.46 86.2409 101.46 86.96C101.437 87.3304 101.491 87.7015 101.617 88.0504C101.744 88.3994 101.94 88.7188 102.194 88.989C102.449 89.2592 102.755 89.4746 103.096 89.6217C103.437 89.7689 103.804 89.8449 104.175 89.8449C104.546 89.8449 104.913 89.7689 105.254 89.6217C105.594 89.4746 105.901 89.2592 106.156 88.989C106.41 88.7188 106.606 88.3994 106.733 88.0504C106.859 87.7015 106.912 87.3304 106.89 86.96C106.891 86.6029 106.82 86.2492 106.683 85.9196C106.546 85.5899 106.344 85.2909 106.09 85.04ZM104.18 89.15C103.6 89.1474 103.044 88.9158 102.634 88.5057C102.224 88.0955 101.993 87.54 101.99 86.96C101.992 86.3823 102.222 85.8289 102.63 85.42C103.045 85.0168 103.601 84.7909 104.18 84.79C104.758 84.79 105.313 85.0197 105.721 85.4285C106.13 85.8373 106.36 86.3918 106.36 86.97C106.36 87.5482 106.13 88.1027 105.721 88.5115C105.313 88.9203 104.758 89.15 104.18 89.15Z" fill="#00269A"/>
<path d="M86.42 33.23C83.3 33.73 80.57 34.79 78.71 40.54L75.12 52.15L66.05 53.65C63.58 53.99 59.24 55.72 57.64 59.3C55.23 63.62 50.77 77.43 50.36 82.64C50.28 88.24 54.91 88.95 59.03 88.24L75.4 85.61L92.15 32.29L86.42 33.23ZM66.73 78.86C65.4757 79.3084 64.152 79.5318 62.82 79.52C62.32 79.15 61.97 79.16 62.08 78L66.78 63.48C66.9535 62.9035 67.3076 62.398 67.7901 62.038C68.2726 61.6779 68.858 61.4823 69.46 61.48L72.33 61.07L66.73 78.86ZM103.78 47.42C96.72 48.32 92.13 49.59 89 54.94C86 60.13 84.8 64.99 82.2 74.07C79.6 83.15 84.88 84.59 93.84 83.46C104.43 82.1 107.05 78.39 109.33 71.03L109.61 70.17L98.88 71.94V72.05C98.23 74.11 97.18 74.73 95.15 74.99C92.46 75.33 92.74 73.94 93.31 72.09L94.31 68.88L111.05 66.22L114.51 55.22C115.91 50.71 115.24 45.95 103.79 47.41L103.78 47.42ZM103.31 58.09L102.45 60.87L96.52 61.76L97.45 58.83C97.89 57.38 98.68 56.4 101.08 56.1C103.48 55.8 103.76 56.64 103.31 58.1V58.09ZM44.07 45.7L28.52 96.7C27.9326 98.2967 26.9537 99.7204 25.6729 100.84C24.3922 101.96 22.8508 102.741 21.19 103.11L14.84 104.06L32.07 47.58L12.52 50.82L15.31 41.94C15.4429 41.2368 15.8135 40.6006 16.3597 40.1382C16.9059 39.6757 17.5945 39.4151 18.31 39.4L66.55 31.54L64.86 36.85C64.1796 38.5833 63.0704 40.1155 61.6362 41.3031C60.202 42.4907 58.4898 43.2948 56.66 43.64L44.07 45.7ZM51.07 57.6C47.92 58.1 45.07 56.24 44.58 53.45C44.09 50.66 46.36 48.01 49.52 47.52C52.68 47.03 55.58 48.88 56.01 51.67C56.44 54.46 54.23 57.11 51.07 57.6ZM53.94 59L43.94 90.66L32.6 92.66L42.6 61.05L53.94 59Z" fill="#00269A"/>
</g>
<defs>
<clipPath id="clip0_3_47">
<rect width="311.02" height="126.84" fill="white"/>
</clipPath>
</defs>
</svg>
